<?xml version="1.0" encoding="utf-8"?>
<!-- Generator: Adobe Illustrator 25.3.1, SVG Export Plug-In . SVG Version: 6.00 Build 0)  -->
<svg version="1.1" id="レイヤー_1" xmlns="http://www.w3.org/2000/svg" xmlns:xlink="http://www.w3.org/1999/xlink" x="0px"
	 y="0px" viewBox="0 0 1920 1080" style="enable-background:new 0 0 1920 1080;" xml:space="preserve">
<style type="text/css">
	.st0{fill:none;}
	.st1{fill:#C6DD7F;}
	.st2{fill:#E9DDB7;}
	.st3{fill:#A6D0E4;}
	.st4{fill:url(#Alyssa);}
</style>
<pattern  width="144.13" height="138.36" patternUnits="userSpaceOnUse" id="Alyssa" viewBox="99.96 -216.83 144.13 138.36" style="overflow:visible;">
	<g>
		<rect x="99.96" y="-216.83" class="st0" width="144.13" height="138.36"/>
		<g>
			<path class="st1" d="M311.04-58.31c-11.76-1.38-19.37,0.35-22.65,3.11c-3.02,2.54-4.96,5.41-2.25,11.93
				c2.94,7.09,1.53,14.73-5.54,15.91c-6.22,1.04-10.89-4.84-11.24-12.28c-0.24-5.18-1.9-8.3-5.53-7.61
				c-3.63,0.69-4.63,5.9-3.63,11.76c1.38,8.13,5.54,11.76,6.23,20.23c0.49,6.05-2.94,13.66-12.45,15.04
				c-9.3,1.35-15.91-4.32-16.6-10.55c-0.73-6.59,3.63-10.89,3.11-17.64c-0.52-6.75-4.01-10.17-5.88-17.29
				c-2.77-10.55,1.21-19.02,7.78-22.65c14.75-8.15,22.83,3.64,35.97,1.56c10.9-1.73,23.35-18.16,33.03-19.54
				c8.23-1.17,13.83,4.67,15.04,14.01C327.64-62.98,321.69-57.05,311.04-58.31z M268.84-57.79c0-2.29-1.86-4.15-4.15-4.15
				c-2.29,0-4.15,1.86-4.15,4.15s1.86,4.15,4.15,4.15C266.98-53.64,268.84-55.5,268.84-57.79z M318.3-73.18
				c0-0.96-0.78-1.73-1.73-1.73s-1.73,0.77-1.73,1.73s0.77,1.73,1.73,1.73S318.3-72.22,318.3-73.18z"/>
		</g>
		<g>
			<path class="st2" d="M148.8-77.49c0,7.17,4.59,13.81-1,16.33c-8.5,3.83-28-14.33-28-36.17c0-12,8.67-19,17.83-19
				c12.33,0,18,8.17,18,17.5C155.63-89.5,148.8-85.69,148.8-77.49z M143.39-82.86c0-1.15-0.93-2.08-2.07-2.08
				c-1.15,0-2.08,0.93-2.08,2.08c0,1.15,0.93,2.08,2.08,2.08C142.46-80.79,143.39-81.72,143.39-82.86z"/>
			<path class="st3" d="M223.49-54c-7.87,2.74-19.44-15.3-17.67-27.02c1.24-8.23,7.12-13.19,13.09-14.22
				c7.53-1.3,12.9,2.6,13.3,7.24c0.55,6.31-3.63,7.52-4.22,14.96C227.43-65.9,231.68-56.85,223.49-54z M219.71-81.51
				c0-1.43-1.16-2.59-2.59-2.59c-1.43,0-2.59,1.16-2.59,2.59c0,1.43,1.16,2.59,2.59,2.59C218.54-78.91,219.71-80.08,219.71-81.51z"
				/>
			<path class="st2" d="M119.35-76.47c0,1.43-1.16,2.59-2.59,2.59c-1.43,0-2.59-1.16-2.59-2.59s1.16-2.59,2.59-2.59
				C118.19-79.06,119.35-77.9,119.35-76.47z"/>
			<path class="st3" d="M184.57-84.19c0.74,8.1,12.67,7.02,17.9,14.21c10.52,14.47-1.22,46.37-21.63,46.37
				c-11.74,0-24.22-9.72-24.22-29.22c0-15.83,10.17-21.5,8.25-42.17c-1.01-10.83-12.5-20.34-12.5-34.75
				c0-5.92,3.59-13.45,11.55-13.45c7.05,0,10.82,5.95,10.82,12.9c0,6.8-5.38,15.74,1.38,19.05c5.24,2.57,13.21-4.77,19.5-6.75
				c5.19-1.64,12.39,0.22,14.75,8.5c2.53,8.88-3.25,14.75-11.59,16.69C192.47-91.32,183.98-90.63,184.57-84.19z M168.59-114.75
				c0-1.82-1.47-3.29-3.29-3.29c-1.81,0-3.29,1.47-3.29,3.29c0,1.81,1.47,3.29,3.29,3.29C167.12-111.46,168.59-112.93,168.59-114.75
				z M194.57-105.05c1.29,0,2.33-1.04,2.33-2.33c0-1.29-1.04-2.33-2.33-2.33c-1.29,0-2.33,1.04-2.33,2.33
				C192.24-106.1,193.29-105.05,194.57-105.05z M174.59-45.38c0-1.82-1.47-3.29-3.29-3.29c-1.81,0-3.29,1.47-3.29,3.29
				c0,1.81,1.47,3.29,3.29,3.29C173.12-42.1,174.59-43.57,174.59-45.38z"/>
			<path class="st1" d="M166.91-58.31c-11.76-1.38-19.37,0.35-22.65,3.11c-3.02,2.54-4.96,5.41-2.25,11.93
				c2.94,7.09,1.53,14.73-5.54,15.91c-6.22,1.04-10.89-4.84-11.24-12.28c-0.24-5.18-1.9-8.3-5.53-7.61
				c-3.63,0.69-4.63,5.9-3.63,11.76c1.38,8.13,5.54,11.76,6.23,20.23c0.49,6.05-2.94,13.66-12.45,15.04
				c-9.3,1.35-15.91-4.32-16.6-10.55c-0.73-6.59,3.63-10.89,3.11-17.64c-0.52-6.75-4.01-10.17-5.88-17.29
				c-2.77-10.55,1.21-19.02,7.78-22.65c14.75-8.15,22.83,3.64,35.97,1.56c10.9-1.73,23.35-18.16,33.03-19.54
				c8.23-1.17,13.83,4.67,15.04,14.01C183.51-62.98,177.56-57.05,166.91-58.31z M124.71-57.79c0-2.29-1.86-4.15-4.15-4.15
				c-2.29,0-4.15,1.86-4.15,4.15s1.86,4.15,4.15,4.15C122.85-53.64,124.71-55.5,124.71-57.79z M174.17-73.18
				c0-0.96-0.78-1.73-1.73-1.73c-0.96,0-1.73,0.77-1.73,1.73s0.77,1.73,1.73,1.73C173.4-71.45,174.17-72.22,174.17-73.18z"/>
		</g>
		<g>
			<path class="st3" d="M290.28-104.84c0,6.23-4.15,10.72-8.65,11.59c-4.5,0.87-8.32-1.28-12.97,1.21
				c-4.84,2.59-7.09,11.07-16.78,11.07c-7.96,0-15.22-7.96-15.22-18.85c0-20.23,13.14-29.23,25.59-29.23
				C278.87-129.05,290.28-116.43,290.28-104.84z M270.57-119.19c0-2.1-1.7-3.8-3.8-3.8c-2.1,0-3.8,1.7-3.8,3.8
				c0,2.1,1.7,3.8,3.8,3.8C268.87-115.39,270.57-117.09,270.57-119.19z"/>
			<path class="st1" d="M311.04-196.67c-11.76-1.38-19.37,0.35-22.65,3.11c-3.02,2.54-4.96,5.41-2.25,11.93
				c2.94,7.09,1.53,14.73-5.54,15.91c-6.22,1.04-10.89-4.84-11.24-12.28c-0.24-5.18-1.9-8.3-5.53-7.61
				c-3.63,0.69-4.63,5.9-3.63,11.76c1.38,8.13,5.54,11.76,6.23,20.23c0.49,6.05-2.94,13.66-12.45,15.04
				c-9.3,1.35-15.91-4.32-16.6-10.55c-0.73-6.59,3.63-10.89,3.11-17.64c-0.52-6.75-4.01-10.17-5.88-17.29
				c-2.77-10.55,1.21-19.02,7.78-22.65c14.75-8.15,22.83,3.64,35.97,1.56c10.9-1.73,23.35-18.16,33.03-19.54
				c8.23-1.17,13.83,4.67,15.04,14.01C327.64-201.34,321.69-195.42,311.04-196.67z M268.84-196.15c0-2.29-1.86-4.15-4.15-4.15
				c-2.29,0-4.15,1.86-4.15,4.15c0,2.29,1.86,4.15,4.15,4.15C266.98-192,268.84-193.86,268.84-196.15z M318.3-211.54
				c0-0.96-0.78-1.73-1.73-1.73s-1.73,0.77-1.73,1.73c0,0.96,0.77,1.73,1.73,1.73S318.3-210.59,318.3-211.54z"/>
		</g>
		<g>
			<path class="st3" d="M131.8-133.19c-13.96,1.99-21.17-13.33-17.67-20.33c3.67-7.33,12.12-4.17,19.5-4.17
				c9.67,0,16.37-7.57,20.42-2.25C158.3-154.36,149.04-135.65,131.8-133.19z M132.32-150.67c0-1.24-1.01-2.25-2.25-2.25
				c-1.24,0-2.25,1.01-2.25,2.25c0,1.24,1.01,2.25,2.25,2.25C131.31-148.42,132.32-149.43,132.32-150.67z"/>
			<path class="st2" d="M148.8-215.86c0,7.17,4.59,13.81-1,16.33c-8.5,3.83-28-14.33-28-36.17c0-12,8.67-19,17.83-19
				c12.33,0,18,8.17,18,17.5C155.63-227.86,148.8-224.05,148.8-215.86z M143.39-221.23c0-1.15-0.93-2.08-2.07-2.08
				c-1.15,0-2.08,0.93-2.08,2.08c0,1.15,0.93,2.08,2.08,2.08C142.46-219.15,143.39-220.08,143.39-221.23z"/>
			<path class="st3" d="M146.15-104.84c0,6.23-4.15,10.72-8.65,11.59c-4.5,0.87-8.32-1.28-12.97,1.21
				c-4.84,2.59-7.09,11.07-16.78,11.07c-7.96,0-15.22-7.96-15.22-18.85c0-20.23,13.14-29.23,25.59-29.23
				C134.74-129.05,146.15-116.43,146.15-104.84z M126.44-119.19c0-2.1-1.7-3.8-3.8-3.8c-2.1,0-3.8,1.7-3.8,3.8
				c0,2.1,1.7,3.8,3.8,3.8C124.74-115.39,126.44-117.09,126.44-119.19z"/>
			<path class="st1" d="M145.46-128.53c0,1.34-1.08,2.42-2.42,2.42c-1.34,0-2.42-1.08-2.42-2.42c0-1.34,1.08-2.42,2.42-2.42
				C144.38-130.95,145.46-129.87,145.46-128.53z"/>
			<path class="st3" d="M229.16-147.04c-3.19,4.68,1.04,10.72-1.38,15.22c-2.42,4.5-6.74,5.02-9.86,2.6
				c-3.63-2.83-3.41-6.64-8.3-8.82c-5.53-2.46-17.98,2.25-19.71-7.26c-0.88-4.81,2.38-8.57,7.26-9.68
				c6.05-1.38,9.35-0.18,15.39-3.11c6.05-2.94,11.24-8.99,22.14-12.11c10.41-2.97,16.07,1.56,16.6,5.88
				C252.34-155.86,234.17-154.38,229.16-147.04z M226.91-154.47c0-1.24-1.01-2.25-2.25-2.25c-1.24,0-2.25,1.01-2.25,2.25
				c0,1.24,1.01,2.25,2.25,2.25C225.91-152.23,226.91-153.23,226.91-154.47z"/>
			<path class="st2" d="M256.13-107.86c0,17.17-14.5,25.5-27,22.83c-10.26-2.19-12.83-17.33-16.67-26.17
				c-3.71-8.56-8.83-22.5-20.17-22.5c-11.2,0-12.83,14.5-23.67,14.5c-11,0-24.5-15.67-24.5-39.67c0-14.67,9.8-31.46,20.83-30.67
				c11.67,0.83,4.5,19.67,15.33,19.67c9.5,0,7.86-16.26,9.17-23.33c1.67-9,6.83-14.17,18.5-13.17c14.44,1.24,22.33,13.5,18.87,23.34
				c-4.03,11.45-23.87,17.32-21.54,30.49c1.35,7.59,13,12,26,16.17C245.82-131.7,256.13-125.02,256.13-107.86z M211.18-183.7
				c0,1.82,1.47,3.29,3.29,3.29c1.81,0,3.29-1.47,3.29-3.29s-1.47-3.29-3.29-3.29C212.65-186.99,211.18-185.52,211.18-183.7z
				 M164.48-158.8c0-0.96-0.77-1.73-1.73-1.73c-0.96,0-1.73,0.78-1.73,1.73c0,0.96,0.78,1.73,1.73,1.73
				C163.71-157.07,164.48-157.84,164.48-158.8z M181.95-148.08c0-2.1-1.7-3.8-3.8-3.8c-2.1,0-3.8,1.7-3.8,3.8
				c0,2.1,1.71,3.8,3.8,3.8C180.25-144.27,181.95-145.97,181.95-148.08z M201.84-163.64c0-0.86-0.7-1.56-1.56-1.56
				c-0.86,0-1.56,0.7-1.56,1.56c0,0.86,0.7,1.56,1.56,1.56C201.14-162.08,201.84-162.78,201.84-163.64z M231.48-108.94
				c0-1.75-1.42-3.17-3.17-3.17c-1.75,0-3.17,1.42-3.17,3.17c0,1.75,1.42,3.17,3.17,3.17C230.06-105.77,231.48-107.19,231.48-108.94
				z"/>
			<path class="st3" d="M223.49-192.36c-7.87,2.74-19.44-15.3-17.67-27.02c1.24-8.23,7.12-13.19,13.09-14.22
				c7.53-1.3,12.9,2.6,13.3,7.24c0.55,6.31-3.63,7.52-4.22,14.96C227.43-204.26,231.68-195.21,223.49-192.36z M219.71-219.87
				c0-1.43-1.16-2.59-2.59-2.59c-1.43,0-2.59,1.16-2.59,2.59c0,1.43,1.16,2.59,2.59,2.59C218.54-217.28,219.71-218.44,219.71-219.87
				z"/>
			<path class="st2" d="M119.35-214.83c0,1.43-1.16,2.59-2.59,2.59c-1.43,0-2.59-1.16-2.59-2.59c0-1.43,1.16-2.59,2.59-2.59
				C118.19-217.42,119.35-216.26,119.35-214.83z"/>
			<path class="st2" d="M253.35-128.09c0-8.41-5.08-15.23-11.34-15.23s-11.34,6.82-11.34,15.23c0,8.41,5.08,12.44,11.34,12.44
				S253.35-119.68,253.35-128.09z"/>
			<path class="st3" d="M184.57-222.55c0.74,8.1,12.67,7.02,17.9,14.21c10.52,14.47-1.22,46.37-21.63,46.37
				c-11.74,0-24.22-9.72-24.22-29.22c0-15.83,10.17-21.5,8.25-42.17c-1.01-10.83-12.5-20.34-12.5-34.75
				c0-5.92,3.59-13.45,11.55-13.45c7.05,0,10.82,5.95,10.82,12.9c0,6.8-5.38,15.74,1.38,19.05c5.24,2.57,13.21-4.77,19.5-6.75
				c5.19-1.64,12.39,0.22,14.75,8.5c2.53,8.88-3.25,14.75-11.59,16.69C192.47-229.69,183.98-228.99,184.57-222.55z M168.59-253.11
				c0-1.82-1.47-3.29-3.29-3.29c-1.81,0-3.29,1.47-3.29,3.29c0,1.81,1.47,3.29,3.29,3.29C167.12-249.82,168.59-251.3,168.59-253.11z
				 M194.57-243.41c1.29,0,2.33-1.04,2.33-2.33c0-1.29-1.04-2.33-2.33-2.33c-1.29,0-2.33,1.04-2.33,2.33
				C192.24-244.46,193.29-243.41,194.57-243.41z M174.59-183.74c0-1.82-1.47-3.29-3.29-3.29c-1.81,0-3.29,1.47-3.29,3.29
				c0,1.81,1.47,3.29,3.29,3.29C173.12-180.46,174.59-181.93,174.59-183.74z"/>
			<path class="st1" d="M166.91-196.67c-11.76-1.38-19.37,0.35-22.65,3.11c-3.02,2.54-4.96,5.41-2.25,11.93
				c2.94,7.09,1.53,14.73-5.54,15.91c-6.22,1.04-10.89-4.84-11.24-12.28c-0.24-5.18-1.9-8.3-5.53-7.61
				c-3.63,0.69-4.63,5.9-3.63,11.76c1.38,8.13,5.54,11.76,6.23,20.23c0.49,6.05-2.94,13.66-12.45,15.04
				c-9.3,1.35-15.91-4.32-16.6-10.55c-0.73-6.59,3.63-10.89,3.11-17.64c-0.52-6.75-4.01-10.17-5.88-17.29
				c-2.77-10.55,1.21-19.02,7.78-22.65c14.75-8.15,22.83,3.64,35.97,1.56c10.9-1.73,23.35-18.16,33.03-19.54
				c8.23-1.17,13.83,4.67,15.04,14.01C183.51-201.34,177.56-195.42,166.91-196.67z M124.71-196.15c0-2.29-1.86-4.15-4.15-4.15
				c-2.29,0-4.15,1.86-4.15,4.15c0,2.29,1.86,4.15,4.15,4.15C122.85-192,124.71-193.86,124.71-196.15z M174.17-211.54
				c0-0.96-0.78-1.73-1.73-1.73c-0.96,0-1.73,0.77-1.73,1.73c0,0.96,0.77,1.73,1.73,1.73C173.4-209.81,174.17-210.59,174.17-211.54z
				"/>
			<path class="st1" d="M230.2-174.36c0,0.76-0.62,1.38-1.38,1.38c-0.76,0-1.38-0.62-1.38-1.38c0-0.76,0.62-1.38,1.38-1.38
				C229.58-175.74,230.2-175.12,230.2-174.36z"/>
			<path class="st2" d="M235.73-212.75c0,1.24-1.01,2.25-2.25,2.25s-2.25-1.01-2.25-2.25c0-1.24,1.01-2.25,2.25-2.25
				S235.73-213.99,235.73-212.75z"/>
			<path class="st3" d="M152.21-189.58c0,0.67-0.54,1.21-1.21,1.21s-1.21-0.54-1.21-1.21s0.54-1.21,1.21-1.21
				S152.21-190.25,152.21-189.58z"/>
			<path class="st3" d="M148.57-121.1c0,0.76-0.62,1.38-1.38,1.38s-1.38-0.62-1.38-1.38c0-0.76,0.62-1.38,1.38-1.38
				S148.57-121.86,148.57-121.1z"/>
			<path class="st2" d="M233.14-143.06c0,0.67-0.54,1.21-1.21,1.21c-0.67,0-1.21-0.54-1.21-1.21c0-0.67,0.54-1.21,1.21-1.21
				C232.6-144.27,233.14-143.73,233.14-143.06z"/>
			<path class="st1" d="M195.85-125.13c0,1.88-1.53,3.41-3.41,3.41c-1.88,0-3.41-1.53-3.41-3.41c0-1.88,1.53-3.41,3.41-3.41
				C194.32-128.54,195.85-127.02,195.85-125.13z"/>
			<path class="st2" d="M200.83-85.28c0,1.16-0.94,2.1-2.1,2.1s-2.1-0.94-2.1-2.1s0.94-2.1,2.1-2.1S200.83-86.44,200.83-85.28z"/>
			<path class="st2" d="M162.03-91.58c0,0.87-0.7,1.57-1.57,1.57c-0.87,0-1.57-0.7-1.57-1.57c0-0.87,0.71-1.57,1.57-1.57
				C161.33-93.15,162.03-92.44,162.03-91.58z"/>
			<circle class="st1" cx="233.08" cy="-205.62" r="2.62"/>
			<circle class="st3" cx="223.12" cy="-170.75" r="2.36"/>
			<path class="st2" d="M127.69-164.2c0,1.45-1.17,2.62-2.62,2.62c-1.45,0-2.62-1.17-2.62-2.62c0-1.45,1.17-2.62,2.62-2.62
				C126.51-166.82,127.69-165.65,127.69-164.2z"/>
			<path class="st3" d="M122.7-171.28c0,0.72-0.59,1.31-1.31,1.31c-0.72,0-1.31-0.59-1.31-1.31s0.59-1.31,1.31-1.31
				C122.12-172.59,122.7-172,122.7-171.28z"/>
			<path class="st2" d="M186.94-119.37c0,0.87-0.71,1.57-1.57,1.57c-0.87,0-1.57-0.7-1.57-1.57c0-0.87,0.7-1.57,1.57-1.57
				C186.23-120.94,186.94-120.24,186.94-119.37z"/>
		</g>
		<g>
			<path class="st3" d="M85.03-147.04c-3.19,4.68,1.04,10.72-1.38,15.22c-2.42,4.5-6.74,5.02-9.86,2.6
				c-3.63-2.83-3.41-6.64-8.3-8.82c-5.53-2.46-17.98,2.25-19.71-7.26c-0.88-4.81,2.38-8.57,7.26-9.68
				c6.05-1.38,9.35-0.18,15.39-3.11c6.05-2.94,11.24-8.99,22.14-12.11c10.41-2.97,16.07,1.56,16.6,5.88
				C108.21-155.86,90.04-154.38,85.03-147.04z M82.79-154.47c0-1.24-1.01-2.25-2.25-2.25c-1.24,0-2.25,1.01-2.25,2.25
				c0,1.24,1.01,2.25,2.25,2.25C81.78-152.23,82.79-153.23,82.79-154.47z"/>
			<path class="st2" d="M112-107.86c0,17.17-14.5,25.5-27,22.83c-10.26-2.19-12.83-17.33-16.67-26.17
				c-3.71-8.56-8.83-22.5-20.17-22.5c-11.2,0-12.83,14.5-23.67,14.5c-11,0-24.5-15.67-24.5-39.67c0-14.67,9.8-31.46,20.83-30.67
				c11.67,0.83,4.5,19.67,15.33,19.67c9.5,0,7.86-16.26,9.17-23.33c1.67-9,6.83-14.17,18.5-13.17c14.44,1.24,22.33,13.5,18.87,23.34
				c-4.03,11.45-23.87,17.32-21.54,30.49c1.35,7.59,13,12,26,16.17C101.7-131.7,112-125.02,112-107.86z M67.05-183.7
				c0,1.82,1.47,3.29,3.29,3.29c1.81,0,3.29-1.47,3.29-3.29s-1.47-3.29-3.29-3.29C68.52-186.99,67.05-185.52,67.05-183.7z
				 M20.36-158.8c0-0.96-0.77-1.73-1.73-1.73c-0.96,0-1.73,0.78-1.73,1.73c0,0.96,0.78,1.73,1.73,1.73
				C19.58-157.07,20.36-157.84,20.36-158.8z M37.82-148.08c0-2.1-1.7-3.8-3.8-3.8c-2.1,0-3.8,1.7-3.8,3.8c0,2.1,1.71,3.8,3.8,3.8
				C36.12-144.27,37.82-145.97,37.82-148.08z M57.71-163.64c0-0.86-0.7-1.56-1.56-1.56c-0.86,0-1.56,0.7-1.56,1.56
				c0,0.86,0.7,1.56,1.56,1.56C57.01-162.08,57.71-162.78,57.71-163.64z M87.35-108.94c0-1.75-1.42-3.17-3.17-3.17
				c-1.75,0-3.17,1.42-3.17,3.17c0,1.75,1.42,3.17,3.17,3.17C85.93-105.77,87.35-107.19,87.35-108.94z"/>
			<path class="st2" d="M109.22-128.09c0-8.41-5.08-15.23-11.34-15.23s-11.34,6.82-11.34,15.23c0,8.41,5.08,12.44,11.34,12.44
				S109.22-119.68,109.22-128.09z"/>
		</g>
	</g>
</pattern>
<g>
	<rect x="91.5" y="188.5" width="143" height="800"/>
	<path d="M234,189v799H92V189H234 M235,188H91v801h144V188L235,188z"/>
</g>
<g>
	<rect x="81.21" y="337.32" transform="matrix(0.7356 -0.6774 0.6774 0.7356 -189.9812 330.8896)" width="495.39" height="143"/>
	<path d="M462.64,189.14l96.19,104.46L195.16,628.5L98.97,524.05L462.64,189.14 M462.7,187.73L97.55,523.99l97.55,105.93
		l365.15-336.26L462.7,187.73L462.7,187.73z"/>
</g>
<g>
	<rect x="299.58" y="524.08" transform="matrix(0.6642 -0.7476 0.7476 0.6642 -452.3343 536.5675)" width="143" height="495.39"/>
	<path d="M233.44,554.51l369.59,328.37l-94.32,106.15L139.13,660.66L233.44,554.51 M233.36,553.1l-95.64,107.65l371.08,329.7
		l95.64-107.65L233.36,553.1L233.36,553.1z"/>
</g>
<g>
	<circle cx="850" cy="947" r="41.5"/>
	<path d="M850,906c22.61,0,41,18.39,41,41s-18.39,41-41,41s-41-18.39-41-41S827.39,906,850,906 M850,905c-23.2,0-42,18.8-42,42
		s18.8,42,42,42s42-18.8,42-42S873.2,905,850,905L850,905z"/>
</g>
<g>
	<rect x="1081.5" y="188.5" width="380" height="116"/>
	<path d="M1461,189v115h-379V189H1461 M1462,188h-381v117h381V188L1462,188z"/>
</g>
<g>
	<rect x="1072.5" y="188.5" width="116" height="800"/>
	<path d="M1188,189v799h-115V189H1188 M1189,188h-117v801h117V188L1189,188z"/>
</g>
<g>
	<rect x="1081.5" y="481.5" width="380" height="116"/>
	<path d="M1461,482v115h-379V482H1461 M1462,481h-381v117h381V481L1462,481z"/>
</g>
<g>
	<rect x="1416.5" y="188.5" width="116" height="409"/>
	<path d="M1532,189v408h-115V189H1532 M1533,188h-117v410h117V188L1533,188z"/>
</g>
<g>
	<rect x="1372.58" y="514.59" transform="matrix(0.8428 -0.5383 0.5383 0.8428 -181.4174 888.7157)" width="116" height="480.63"/>
	<path d="M1349.96,521.84l258.17,404.22l-96.92,61.9l-258.17-404.22L1349.96,521.84 M1350.26,520.46l-98.61,62.98l259.24,405.91
		l98.61-62.98L1350.26,520.46L1350.26,520.46z"/>
</g>
<g>
	<polygon class="st4" points="789,293.92 747.94,315.51 755.79,269.79 722.57,237.42 768.47,230.75 789,189.15 809.53,230.75 
		855.43,237.42 822.21,269.79 830.06,315.51 	"/>
	<path d="M789,190.28l19.96,40.45l0.23,0.47l0.52,0.08l44.64,6.49l-32.3,31.49l-0.38,0.37l0.09,0.52l7.63,44.46l-39.93-20.99
		l-0.47-0.24l-0.47,0.24l-39.93,20.99l7.63-44.46l0.09-0.52l-0.38-0.37l-32.3-31.49l44.64-6.49l0.52-0.08l0.23-0.47L789,190.28
		 M789,188.02l-20.86,42.27l-46.64,6.78l33.75,32.9l-7.97,46.46L789,294.49l41.72,21.93l-7.97-46.46l33.75-32.9l-46.64-6.78
		L789,188.02L789,188.02z"/>
</g>
<g>
	<polygon class="st4" points="827.5,763.6 779.18,789 788.41,735.2 749.32,697.1 803.34,689.25 827.5,640.3 851.66,689.25 
		905.68,697.1 866.59,735.2 875.82,789 	"/>
	<path d="M827.5,641.43l23.59,47.81l0.23,0.47l0.52,0.08l52.76,7.67l-38.18,37.21l-0.38,0.37l0.09,0.52l9.01,52.54l-47.19-24.81
		l-0.47-0.24l-0.47,0.24l-47.19,24.81l9.01-52.54l0.09-0.52l-0.38-0.37l-38.18-37.21l52.76-7.67l0.52-0.08l0.23-0.47L827.5,641.43
		 M827.5,639.17l-24.49,49.62l-54.76,7.96l39.63,38.63l-9.35,54.54l48.98-25.75l48.98,25.75l-9.35-54.54l39.63-38.63l-54.76-7.96
		L827.5,639.17L827.5,639.17z"/>
</g>
<g>
	<polygon class="st4" points="606,616.82 562.72,639.58 570.98,591.38 535.96,557.24 584.36,550.21 606,506.36 627.64,550.21 
		676.04,557.24 641.02,591.38 649.28,639.58 	"/>
	<path d="M606,507.49l21.08,42.71l0.23,0.47l0.52,0.08l47.13,6.85l-34.1,33.24l-0.38,0.37l0.09,0.52l8.05,46.94l-42.15-22.16
		l-0.47-0.24l-0.47,0.24l-42.15,22.16l8.05-46.94l0.09-0.52l-0.38-0.37l-34.1-33.24l47.13-6.85l0.52-0.08l0.23-0.47L606,507.49
		 M606,505.23l-21.97,44.52l-49.14,7.14l35.55,34.66l-8.39,48.94l43.95-23.1l43.95,23.1l-8.39-48.94l35.55-34.66l-49.14-7.14
		L606,505.23L606,505.23z"/>
</g>
<g>
	<polygon class="st4" points="960,490.7 918.03,512.76 926.05,466.03 892.1,432.94 939.02,426.12 960,383.6 980.98,426.12 
		1027.9,432.94 993.95,466.03 1001.97,512.76 	"/>
	<path d="M960,384.73l20.42,41.37l0.23,0.47l0.52,0.08l45.66,6.63l-33.04,32.2l-0.38,0.37l0.09,0.52l7.8,45.47l-40.84-21.47
		l-0.47-0.24l-0.47,0.24l-40.84,21.47l7.8-45.47l0.09-0.52l-0.38-0.37l-33.04-32.2l45.66-6.63l0.52-0.08l0.23-0.47L960,384.73
		 M960,382.47l-21.32,43.19l-47.66,6.93l34.49,33.62l-8.14,47.47L960,491.26l42.63,22.41l-8.14-47.47l34.49-33.62l-47.66-6.93
		L960,382.47L960,382.47z"/>
</g>
<g>
	<polygon class="st4" points="1806,520.35 1759.74,544.67 1768.58,493.16 1731.15,456.68 1782.87,449.17 1806,402.3 1829.13,449.17 
		1880.85,456.68 1843.42,493.16 1852.26,544.67 	"/>
	<path d="M1806,403.43l22.56,45.72l0.23,0.47l0.52,0.08l50.45,7.33l-36.51,35.59l-0.38,0.37l0.09,0.52l8.62,50.25l-45.13-23.73
		l-0.47-0.24l-0.47,0.24l-45.13,23.73l8.62-50.25l0.09-0.52l-0.38-0.37l-36.51-35.59l50.45-7.33l0.52-0.08l0.23-0.47L1806,403.43
		 M1806,401.17l-23.46,47.54l-52.46,7.62l37.96,37l-8.96,52.25l46.92-24.67l46.92,24.67l-8.96-52.25l37.96-37l-52.46-7.62
		L1806,401.17L1806,401.17z"/>
</g>
<g>
	<polygon class="st4" points="1677,263.16 1640.37,282.41 1647.37,241.63 1617.74,212.74 1658.69,206.79 1677,169.69 
		1695.31,206.79 1736.26,212.74 1706.63,241.63 1713.63,282.41 	"/>
	<path d="M1677,170.82l17.75,35.96l0.23,0.47l0.52,0.08l39.69,5.77l-28.72,27.99l-0.38,0.37l0.09,0.52l6.78,39.53l-35.5-18.66
		l-0.47-0.24l-0.47,0.24l-35.5,18.66l6.78-39.53l0.09-0.52l-0.38-0.37l-28.72-27.99l39.69-5.77l0.52-0.08l0.23-0.47L1677,170.82
		 M1677,168.56l-18.65,37.78l-41.69,6.06l30.17,29.41l-7.12,41.52l37.29-19.6l37.29,19.6l-7.12-41.52l30.17-29.41l-41.69-6.06
		L1677,168.56L1677,168.56z"/>
</g>
<g>
	<polygon class="st4" points="1822,951.22 1767.67,979.79 1778.04,919.28 1734.08,876.43 1794.83,867.61 1822,812.56 
		1849.17,867.61 1909.92,876.43 1865.96,919.28 1876.33,979.79 	"/>
	<path d="M1822,813.69l26.6,53.9l0.23,0.47l0.52,0.08l59.49,8.64l-43.04,41.96l-0.38,0.37l0.09,0.52l10.16,59.24l-53.21-27.97
		l-0.47-0.24l-0.47,0.24l-53.21,27.97l10.16-59.24l0.09-0.52l-0.38-0.37l-43.04-41.96l59.49-8.64l0.52-0.08l0.23-0.47L1822,813.69
		 M1822,811.43l-27.5,55.72l-61.49,8.94l44.49,43.37L1767,980.7l55-28.91l55,28.91l-10.5-61.24l44.49-43.37l-61.49-8.94L1822,811.43
		L1822,811.43z"/>
</g>
<g>
	<polygon class="st4" points="1366,927.7 1339.32,941.73 1344.41,912.01 1322.82,890.97 1352.66,886.64 1366,859.6 1379.34,886.64 
		1409.18,890.97 1387.59,912.01 1392.68,941.73 	"/>
	<path d="M1366,860.73l12.78,25.89l0.23,0.47l0.52,0.08l28.57,4.15l-20.67,20.15l-0.38,0.37l0.09,0.52l4.88,28.46l-25.55-13.44
		l-0.47-0.24l-0.47,0.24l-25.55,13.44l4.88-28.46l0.09-0.52l-0.38-0.37l-20.67-20.15l28.57-4.15l0.52-0.08l0.23-0.47L1366,860.73
		 M1366,858.47l-13.67,27.71l-30.58,4.44l22.13,21.57l-5.22,30.45l27.35-14.38l27.35,14.38l-5.22-30.45l22.13-21.57l-30.58-4.44
		L1366,858.47L1366,858.47z"/>
</g>
<g>
	<polygon class="st4" points="329,139.76 302.25,153.82 307.36,124.03 285.72,102.94 315.62,98.59 329,71.49 342.38,98.59 
		372.28,102.94 350.64,124.03 355.75,153.82 	"/>
	<path d="M329,72.62l12.81,25.96l0.23,0.47l0.52,0.08l28.65,4.16l-20.73,20.21l-0.38,0.37l0.09,0.52l4.89,28.53l-25.62-13.47
		l-0.47-0.24l-0.47,0.24l-25.62,13.47l4.89-28.53l0.09-0.52l-0.38-0.37l-20.73-20.21l28.65-4.16l0.52-0.08l0.23-0.47L329,72.62
		 M329,70.36l-13.71,27.77l-30.65,4.45l22.18,21.62l-5.24,30.53L329,140.32l27.42,14.41l-5.24-30.53l22.18-21.62l-30.65-4.45
		L329,70.36L329,70.36z"/>
</g>
<g>
	<polygon class="st4" points="710,975.44 685.97,988.07 690.56,961.32 671.12,942.37 697.99,938.46 710,914.12 722.01,938.46 
		748.88,942.37 729.44,961.32 734.03,988.07 	"/>
	<path d="M710,915.25l11.45,23.2l0.23,0.47l0.52,0.08l25.6,3.72l-18.53,18.06l-0.38,0.37l0.09,0.52l4.37,25.5l-22.9-12.04
		l-0.47-0.24l-0.47,0.24l-22.9,12.04l4.37-25.5l0.09-0.52l-0.38-0.37l-18.53-18.06l25.6-3.72l0.52-0.08l0.23-0.47L710,915.25
		 M710,912.99l-12.35,25.02l-27.61,4.01l19.98,19.47l-4.72,27.5L710,976.01l24.69,12.98l-4.72-27.5l19.98-19.47l-27.61-4.01
		L710,912.99L710,912.99z"/>
</g>
<g>
	<polygon class="st4" points="295,972.39 279.26,980.66 282.27,963.14 269.53,950.73 287.13,948.17 295,932.22 302.87,948.17 
		320.47,950.73 307.73,963.14 310.74,980.66 	"/>
	<path d="M295,933.35l7.3,14.8l0.23,0.47l0.52,0.08l16.33,2.37l-11.82,11.52l-0.38,0.37l0.09,0.52l2.79,16.27l-14.61-7.68
		l-0.47-0.24l-0.47,0.24l-14.61,7.68l2.79-16.27l0.09-0.52l-0.38-0.37l-11.82-11.52l16.33-2.37l0.52-0.08l0.23-0.47L295,933.35
		 M295,931.09l-8.2,16.62l-18.34,2.66l13.27,12.94l-3.13,18.27l16.4-8.62l16.4,8.62l-3.13-18.27l13.27-12.94l-18.34-2.66L295,931.09
		L295,931.09z"/>
</g>
<g>
	<polygon class="st4" points="1295,431.22 1268.88,444.95 1273.87,415.87 1252.74,395.27 1281.94,391.02 1295,364.56 
		1308.06,391.02 1337.26,395.27 1316.13,415.87 1321.12,444.95 	"/>
	<path d="M1295,365.69l12.5,25.32l0.23,0.47l0.52,0.08l27.94,4.06l-20.22,19.71l-0.38,0.37l0.09,0.52l4.77,27.83l-24.99-13.14
		l-0.47-0.24l-0.47,0.24l-24.99,13.14l4.77-27.83l0.09-0.52l-0.38-0.37l-20.22-19.71l27.94-4.06l0.52-0.08l0.23-0.47L1295,365.69
		 M1295,363.43l-13.39,27.14l-29.95,4.35l21.67,21.12l-5.12,29.83l26.79-14.08l26.79,14.08l-5.12-29.83l21.67-21.12l-29.95-4.35
		L1295,363.43L1295,363.43z"/>
</g>
</svg>
